<svg width="35" height="50" viewBox="0 0 35 37" fill="#555555" xmlns="http://www.w3.org/2000/svg">
<g clip-path="url(#clip0)">
<path d="M11.3477 23.9202H29.8733C30.3321 23.9202 30.7345 23.5995 30.8587 23.1338L34.9605 7.95769C35.0486 7.63052 34.9883 7.27907 34.7941 7.00723C34.5997 6.73623 34.2974 6.57617 33.9749 6.57617H8.98045L8.24745 3.08936C8.14331 2.59281 7.72675 2.24023 7.24609 2.24023H1.02539C0.458756 2.24023 0 2.7252 0 3.32422C0 3.92352 0.458756 4.4082 1.02539 4.4082H6.42311L10.126 22.0229C9.03652 22.5237 8.27148 23.6701 8.27148 25.0042C8.27148 26.7973 9.65149 28.2561 11.3477 28.2561H29.8733C30.4402 28.2561 30.8987 27.7715 30.8987 27.1722C30.8987 26.5731 30.4402 26.0882 29.8733 26.0882H11.3477C10.7829 26.0882 10.3223 25.6024 10.3223 25.0042C10.3223 24.406 10.7829 23.9202 11.3477 23.9202Z" fill="#555555"/>
<path d="M10.3223 31.5081C10.3223 33.3014 11.7023 34.76 13.3987 34.76C15.0949 34.76 16.4749 33.3014 16.4749 31.5081C16.4749 29.715 15.0949 28.2561 13.3987 28.2561C11.7023 28.2561 10.3223 29.715 10.3223 31.5081Z" fill="#555555"/>
<path d="M24.7463 31.5081C24.7463 33.3014 26.1263 34.76 27.8225 34.76C29.5189 34.76 30.8987 33.3014 30.8987 31.5081C30.8987 29.715 29.5189 28.2561 27.8225 28.2561C26.1263 28.2561 24.7463 29.715 24.7463 31.5081Z" fill="#555555"/>
</g>
<defs>
<clipPath id="clip0">
<rect width="35" height="37" fill="#555555"/>
</clipPath>
</defs>
</svg>
