<svg width="82" height="47" viewBox="0 0 82 47" fill="none" xmlns="http://www.w3.org/2000/svg">
<path d="M60.2 1H21.8C10.3125 1 1 11.0736 1 23.5C1 35.9264 10.3125 46 21.8 46H60.2C71.6875 46 81 35.9264 81 23.5C81 11.0736 71.6875 1 60.2 1Z" stroke="#555555"/>
<path d="M15.625 24.5H31.375" stroke="#555555" stroke-width="2" stroke-linecap="round" stroke-linejoin="round"/>
<path d="M15.625 18.25H31.375" stroke="#555555" stroke-width="2" stroke-linecap="round" stroke-linejoin="round"/>
<path d="M15.625 30.75H31.375" stroke="#555555" stroke-width="2" stroke-linecap="round" stroke-linejoin="round"/>
<path d="M67 30V28.3334C67 27.4493 66.6575 26.6014 66.048 25.9763C65.4385 25.3513 64.6119 25 63.75 25H57.25C56.388 25 55.5613 25.3513 54.952 25.9763C54.3425 26.6014 54 27.4493 54 28.3334V30" stroke="#555555" stroke-width="2" stroke-linecap="round" stroke-linejoin="round"/>
<path d="M60.5001 21C62.9853 21 65 19.2091 65 17.0001C65 14.7909 62.9853 13 60.5001 13C58.0147 13 56 14.7909 56 17.0001C56 19.2091 58.0147 21 60.5001 21Z" stroke="#555555" stroke-width="2" stroke-linecap="round" stroke-linejoin="round"/>
</svg>
