<svg width="104" height="97" viewBox="0 0 104 97" fill="none" xmlns="http://www.w3.org/2000/svg">
<path d="M29.1616 0.0799994H25.8816V24.12H29.1616V0.0799994ZM3.76156 10.96C3.76156 7.56 6.32156 5.2 9.92156 5.2C13.4816 5.2 16.0816 7.56 16.0816 10.96C16.0816 14.36 13.4816 16.72 9.92156 16.72C6.32156 16.72 3.76156 14.36 3.76156 10.96ZM19.2816 10.96C19.2816 5.88 15.3216 2.44 9.92156 2.44C4.48156 2.44 0.561563 5.88 0.561563 10.96C0.561563 16.04 4.48156 19.52 9.92156 19.52C15.3216 19.52 19.2816 16.04 19.2816 10.96ZM19.2016 22H15.8416V23.16C15.8416 28.32 10.2016 32.16 3.80156 33.28L5.12156 35.8C10.5216 34.76 15.4016 32 17.5216 27.8C19.6416 31.96 24.4416 34.76 29.8416 35.8L31.1616 33.28C24.7616 32.16 19.2016 28.28 19.2016 23.16V22Z" fill="#555555"/>
<path d="M74.5216 66.24H87.9216V63.52H71.2416V87.08H74.0816C80.8416 87.08 85.5616 86.84 91.0416 85.8L90.6816 83.08C85.4816 84 80.8816 84.28 74.5216 84.28V66.24ZM103.242 74.24H97.3216V60.08H94.0416V96.04H97.3216V76.96H103.242V74.24Z" fill="#555555"/>
<line x1="37.3466" y1="32.6396" x2="63.3466" y2="57.6396" stroke="#555555"/>
</svg>
